# xmcd
#
# Track frame offsets: 
#        150
#        11868
#        27810
#        38496
#        51085
#        66157
#        77097
#        95687
#        107285
#        124298
#
# Disc length: 1866 seconds
#
# Revision: 0
# Processed by: cddbd v1.5.2PL0 Copyright (c) Steve Scherf et al.
# Submitted via: ExactAudioCopy v0.99pb5
#
DISCID=7807480a
DTITLE=The King Bucks - The King Bucks
DYEAR=2009
DGENRE=Country
TTITLE0=Autumn Leaves
TTITLE1=Girl From The City
TTITLE2=Dallastown
TTITLE3=Picket Fences
TTITLE4=If You're Trying To Kill Me (You're Already Half Way There)
TTITLE5=No More Fatties
TTITLE6=It's Over
TTITLE7=Between The Lines
TTITLE8=Abilene
TTITLE9=Dead By Morning
EXTD=
EXTT0=
EXTT1=
EXTT2=
EXTT3=
EXTT4=
EXTT5=
EXTT6=
EXTT7=
EXTT8=
EXTT9=
PLAYORDER=
